PathFileType	4	(X/Y/Z)	C:/Users/opensim2020/Desktop/walking_exp_matlab/subject06_walking22_straight_04.trc	
DataRate	CameraRate	NumFrames	NumMarkers	Units	OrigDataRate	OrigDataStartFrame	OrigNumFrames	
100.00	100.00	4	44	mm	100.00	2264	102	
Frame#	Time	LFHD			RFHD			LBHD			RBHD			C7			T10			CLAV			STRN			RBAK			LSHO			LUPA			LELB			LFRM			LWRA			LWRB			LFIN			RSHO			RUPA			RELB			RFRM			RWRA			RWRB			RFIN			LASI			RASI			LPSI			RPSI			LTHI			LKNE			LTIB			LANK			LHEE			LTOE			RTHI			RKNE			RTIB			RANK			RHEE			RTOE			*39			*40			*41			*42			*43			
		X1	Y1	Z1	X2	Y2	Z2	X3	Y3	Z3	X4	Y4	Z4	X5	Y5	Z5	X6	Y6	Z6	X7	Y7	Z7	X8	Y8	Z8	X9	Y9	Z9	X10	Y10	Z10	X11	Y11	Z11	X12	Y12	Z12	X13	Y13	Z13	X14	Y14	Z14	X15	Y15	Z15	X16	Y16	Z16	X17	Y17	Z17	X18	Y18	Z18	X19	Y19	Z19	X20	Y20	Z20	X21	Y21	Z21	X22	Y22	Z22	X23	Y23	Z23	X24	Y24	Z24	X25	Y25	Z25	X26	Y26	Z26	X27	Y27	Z27	X28	Y28	Z28	X29	Y29	Z29	X30	Y30	Z30	X31	Y31	Z31	X32	Y32	Z32	X33	Y33	Z33	X34	Y34	Z34	X35	Y35	Z35	X36	Y36	Z36	X37	Y37	Z37	X38	Y38	Z38	X39	Y39	Z39	X40	Y40	Z40	X41	Y41	Z41	X42	Y42	Z42	X43	Y43	Z43	X44	Y44	Z44	

77	0.760	-913.45197	-370.56476	1641.55164	-1044.00110	-389.10300	1633.63342	-934.47412	-235.26532	1596.56836	-1062.42346	-256.02985	1593.62024	-980.14227	-235.93906	1433.40063	-983.24677	-215.24847	1101.34790	-981.34100	-348.58707	1359.30359	-967.35583	-394.85965	1187.27466	-1047.70593	-165.92830	1257.41467	-819.62012	-294.95831	1392.71875	-744.22089	-322.91379	1194.63208	-731.93848	-341.50894	1082.77185	-721.17328	-436.86511	966.49518	-774.64410	-548.17957	914.39124	-739.04767	-505.81723	870.38019	-742.63000	-588.36871	835.58136	-1141.73816	-294.00732	1385.78296	-1229.40271	-211.15198	1208.05151	-1248.26343	-187.99622	1088.02661	-1272.23560	-167.71181	970.27325	-1249.68970	-182.51079	817.85553	-1289.48267	-131.02950	837.73206	-1292.66260	-140.65536	752.80023	-870.94391	-388.15942	941.53723	-1091.00940	-412.98694	966.06738	-913.26703	-234.07233	962.08392	-1079.40137	-256.29730	980.75159	-835.92242	-336.94553	613.57031	-856.46710	-349.37131	451.53119	-867.51569	-147.02570	312.81604	-906.89319	-4.75170	219.66217	-953.32251	27.85254	245.08176	-911.90674	-49.41668	81.08762	-1160.10168	-425.99063	638.10693	-1130.96533	-462.43948	518.49799	-1131.93408	-423.14359	252.17738	-1082.82471	-401.05560	69.90520	-1038.64697	-361.86191	46.04362	-1087.26514	-554.31921	31.47287	-985.48016	-282.82245	1687.80933												 
78	0.770	-912.71436	-384.81812	1643.79443	-1043.18530	-403.79459	1636.10571	-934.20325	-249.30672	1599.30945	-1062.13818	-270.58591	1596.55090	-980.60925	-249.92307	1436.23682	-984.44336	-228.47379	1104.04883	-981.24780	-362.51788	1361.96448	-967.46332	-408.36960	1189.94507	-1049.31531	-180.01517	1260.21936	-819.75470	-307.73254	1395.17419	-744.75800	-333.06757	1196.43335	-732.90741	-350.77780	1084.46814	-721.60352	-443.51819	965.64185	-774.60992	-553.19690	909.93036	-739.74200	-509.01608	867.13562	-742.76501	-590.67261	829.74487	-1141.80713	-308.64304	1389.03931	-1230.60718	-228.69691	1210.06921	-1249.34851	-207.59991	1089.75842	-1273.27051	-190.76292	971.49316	-1249.97144	-210.11197	819.81177	-1290.05457	-157.93311	837.83911	-1293.51099	-170.49333	753.44861	-871.21381	-401.00342	944.71674	-1090.79065	-426.18753	968.56458	-913.69763	-247.15314	964.76910	-1079.54614	-269.45499	983.36597	-836.51062	-356.13824	616.67578	-857.19855	-373.79373	455.18915	-867.73083	-174.71373	312.48157	-907.39374	-34.37922	215.76680	-953.66327	-0.23124	239.94394	-912.76007	-85.15302	79.86861	-1159.96985	-434.77167	639.11938	-1131.24121	-468.33505	518.30902	-1132.15906	-425.68088	252.02791	-1083.25879	-401.42270	69.93805	-1038.71704	-361.22687	46.72594	-1087.37402	-554.39362	31.31497	-984.92877	-297.56616	1690.56311												 
79	0.780	-911.81506	-398.93661	1645.95886	-1042.21484	-418.43442	1638.45837	-934.02826	-263.82648	1601.70996	-1061.76355	-285.21991	1599.23450	-981.01782	-263.93860	1438.61194	-985.61377	-241.69458	1106.73486	-981.12695	-376.33679	1364.47302	-967.50421	-421.86609	1192.48682	-1051.03906	-194.03342	1262.92847	-819.93066	-320.29413	1397.45630	-745.32983	-343.23743	1198.25244	-733.99335	-359.94113	1086.18701	-721.96509	-449.46268	964.78351	-774.31415	-557.64227	905.44775	-739.40027	-511.91068	864.12402	-742.46033	-592.38251	823.92230	-1141.86072	-323.27170	1392.09753	-1231.71448	-246.19864	1212.07227	-1250.46594	-227.10936	1091.46826	-1274.17847	-213.72859	972.77161	-1250.29932	-237.78339	822.07300	-1290.49146	-185.13156	838.05182	-1293.84338	-201.07007	754.41901	-871.54578	-414.15646	947.83978	-1090.54700	-438.82642	970.90576	-913.89111	-260.24323	967.28979	-1079.64954	-282.24484	985.77350	-836.73694	-375.09402	619.98511	-857.54016	-397.64984	459.03833	-868.18152	-202.53923	311.66519	-908.00238	-64.79831	210.68884	-954.10046	-29.11226	233.22173	-913.44788	-122.75258	78.23489	-1159.74878	-443.17349	639.75354	-1131.30774	-473.97879	517.94720	-1132.38086	-428.12930	251.96106	-1083.28894	-401.29843	70.16791	-1038.95764	-361.13495	47.00074	-1087.54382	-554.40942	31.22383	-984.26208	-312.03702	1693.11890												 
80	0.790	-910.81299	-412.96115	1647.86707	-1041.18030	-432.89749	1640.72620	-933.43146	-277.50439	1604.26013	-1061.37854	-299.60315	1601.92273	-981.60474	-277.74860	1441.02698	-986.82556	-254.60849	1109.39905	-980.81903	-390.31873	1366.90332	-967.48083	-435.19293	1194.78735	-1052.75928	-208.21596	1265.55432	-820.00250	-332.88446	1399.61499	-745.97491	-353.50647	1200.05444	-735.24512	-368.60898	1087.69751	-722.82544	-454.58344	963.87567	-773.77600	-561.50769	900.98218	-738.76129	-514.38275	861.24152	-741.56531	-593.67224	818.39874	-1141.87476	-337.96524	1395.01929	-1232.57263	-263.65649	1213.90796	-1251.52234	-246.37962	1093.18530	-1275.01208	-236.53078	974.19702	-1250.57703	-265.70813	824.67657	-1290.73962	-212.47530	838.49402	-1294.19604	-231.74364	755.87561	-871.95953	-427.26813	950.71057	-1090.62415	-451.25125	973.05682	-913.55518	-273.43420	969.99396	-1079.34509	-294.83868	988.18463	-836.63989	-393.76804	623.30255	-857.63275	-420.99893	463.05811	-868.68256	-230.29391	310.55286	-908.68732	-96.11139	204.42616	-954.66766	-58.92218	225.04140	-913.43500	-161.91359	76.35160	-1159.30237	-451.49890	640.16998	-1131.42078	-479.42276	517.60760	-1132.41614	-430.17831	252.03926	-1083.67334	-401.59756	70.25924	-1039.09338	-361.15808	47.34834	-1087.73438	-554.41949	31.14512	-983.47504	-326.47076	1695.46863												 
